<?xml version="1.0" ?><svg height="64" id="svg8" version="1.1" viewBox="0 0 16.933333 16.933333" width="64" xmlns="http://www.w3.org/2000/svg" xmlns:cc="http://creativecommons.org/ns#" xmlns:dc="http://purl.org/dc/elements/1.1/" xmlns:inkscape="http://www.inkscape.org/namespaces/inkscape" xmlns:rdf="http://www.w3.org/1999/02/22-rdf-syntax-ns#" xmlns:sodipodi="http://sodipodi.sourceforge.net/DTD/sodipodi-0.dtd" xmlns:svg="http://www.w3.org/2000/svg"><defs id="defs2"/><g id="layer2"><path d="m 4.4979168,9.7895813 h 7.9375012 c 0.293158,0 0.529167,0.2360087 0.529167,0.5291667 v 2.116666 c 0,0.293159 -0.236009,0.529167 -0.529167,0.529167 H 4.4979168 c -0.2931583,0 -0.5291666,-0.236008 -0.5291666,-0.529167 v -2.116666 c 0,-0.293158 0.2360083,-0.5291667 0.5291666,-0.5291667 z" id="rect7515" style="fill:#a8c5f7;fill-opacity:1;stroke:none;stroke-width:0.529167;stroke-linecap:round;stroke-linejoin:round;stroke-miterlimit:4;stroke-dasharray:none"/><path d="M 12.435417,9.7895832 V 11.90625 c 0,0.293158 -0.236009,0.529167 -0.529167,0.529167 h -7.9375 c 0,0.293158 0.2360083,0.529166 0.5291666,0.529166 h 7.9375004 c 0.293158,0 0.529166,-0.236008 0.529166,-0.529166 V 10.31875 c 0,-0.293158 -0.236008,-0.5291668 -0.529166,-0.5291668 z" id="rect7523" style="fill:#91b8fb;fill-opacity:1;stroke:none;stroke-width:0.529167;stroke-linecap:round;stroke-linejoin:round;stroke-miterlimit:4;stroke-dasharray:none"/><path d="m 4.4979166,12.964584 h 7.9375014 c 0.293158,0 0.529167,0.236009 0.529167,0.529167 v 2.116666 c 0,0.293158 -0.236009,0.529167 -0.529167,0.529167 H 4.4979166 c -0.2931582,0 -0.5291664,-0.236009 -0.5291664,-0.529167 v -2.116666 c 0,-0.293158 0.2360082,-0.529167 0.5291664,-0.529167 z" id="rect7517" style="fill:#a8c5f7;fill-opacity:1;stroke:none;stroke-width:0.529167;stroke-linecap:round;stroke-linejoin:round;stroke-miterlimit:4;stroke-dasharray:none"/><path d="m 12.435417,12.964583 v 2.116667 c 0,0.293158 -0.236009,0.529166 -0.529167,0.529166 H 3.9687499 c 0,0.293159 0.2360084,0.529167 0.5291667,0.529167 h 7.9375004 c 0.293158,0 0.529166,-0.236008 0.529166,-0.529167 V 13.49375 c 0,-0.293159 -0.236008,-0.529167 -0.529166,-0.529167 z" id="path7527" style="fill:#91b8fb;fill-opacity:1;stroke:none;stroke-width:0.529167;stroke-linecap:round;stroke-linejoin:round;stroke-miterlimit:4;stroke-dasharray:none"/><path d="M 8.4666666,0.79374999 C 6.6004453,0.79376982 5.0739056,2.2804329 5.0244993,4.1460001 v 0.00465 C 4.7790761,4.0344251 4.5102311,3.96875 4.2333333,3.96875 3.2104552,3.96875 2.38125,4.7979634 2.38125,5.8208333 c 0,1.0228799 0.8292062,1.8520833 1.8520833,1.8520833 h 8.0754757 c 0.868578,2.01e-5 1.663059,-0.5064988 2.032434,-1.2986287 0.369375,-0.79213 0.24658,-1.7261893 -0.315226,-2.3957195 C 13.496094,3.3470283 12.666404,3.0587013 11.865425,3.2178913 l -0.10697,0.018603 C 11.318135,1.7866909 9.9818595,0.79507785 8.4666666,0.79374999 Z" id="path7494" style="opacity:0.98600003;fill:#e2e7fa;fill-opacity:1;stroke:none;stroke-width:0.529167;stroke-linecap:round;stroke-linejoin:round"/><path d="M 32 3 C 25.142583 3.0000729 19.515149 8.3153585 19.035156 15.089844 C 19.713672 15.196111 20.372998 15.395196 20.990234 15.6875 L 20.990234 15.669922 C 21.168681 8.9318382 26.448791 3.5136456 33.072266 3.0449219 C 32.717752 3.0154356 32.360551 3.000316 32 3 z M 46.367188 12.017578 C 46.390573 12.090015 46.419218 12.159365 46.441406 12.232422 L 46.845703 12.162109 C 47.066413 12.118245 47.288384 12.102209 47.509766 12.076172 C 47.13155 12.030692 46.751117 12.011628 46.367188 12.017578 z M 16 15 C 12.134004 15 9 18.134035 9 22 C 9 25.866003 12.134008 29 16 29 L 18 29 C 14.134008 29 11 25.866003 11 22 C 11 18.478817 13.603391 15.573786 16.988281 15.082031 C 16.662297 15.033303 16.334076 15 16 15 z " id="path842" style="opacity:0.98600003;fill:#f8f8f8;fill-opacity:1;stroke:none;stroke-width:2.00000119;stroke-linecap:round;stroke-linejoin:round" transform="scale(0.26458333)"/><path d="m 13.594519,3.5842773 c 0.472764,0.6567599 0.563214,1.5195799 0.217558,2.2608439 -0.369375,0.79213 -1.163855,1.2986488 -2.032435,1.2986287 H 3.7041666 c -0.3760353,0 -0.725398,-0.1128522 -1.0175089,-0.3054077 0.3312269,0.5024778 0.8998339,0.8345744 1.5466756,0.8345744 h 8.0754757 c 0.868578,2.01e-5 1.663059,-0.5064988 2.032434,-1.2986287 0.369375,-0.79213 0.24658,-1.7261893 -0.315226,-2.3957195 -0.127714,-0.152204 -0.27356,-0.2834169 -0.431498,-0.3942911 z" id="path7501" style="opacity:0.98600003;fill:#c4d2f0;fill-opacity:1;stroke:none;stroke-width:0.529167;stroke-linecap:round;stroke-linejoin:round"/><path d="M 11.875386,3.5522072 C 11.458762,1.6455841 9.9818596,0.79507783 8.4666666,0.79374999 8.358471,0.79399653 8.2503475,0.79934222 8.1426554,0.80976972 9.8762046,0.97363252 11.237987,2.6864868 11.284197,4.4271498 11.807911,4.2910503 11.951309,3.899662 11.875386,3.5522072 Z" id="path7506" style="opacity:0.98600003;fill:#c4d2f0;fill-opacity:1;stroke:none;stroke-width:0.529167;stroke-linecap:round;stroke-linejoin:round"/><path d="m 12.435417,6.085403 c 0,0.2922508 -0.236916,0.5291668 -0.529167,0.5291666 -0.292251,2e-7 -0.529167,-0.2369158 -0.529167,-0.5291666 0,-0.2922508 0.236916,-0.5291669 0.529167,-0.5291667 0.292251,-2e-7 0.529167,0.2369159 0.529167,0.5291667 z" id="circle7511" style="opacity:0.98600003;fill:#a8c5f7;fill-opacity:1;stroke:none;stroke-width:0.529167;stroke-linecap:round;stroke-linejoin:round;stroke-miterlimit:4;stroke-dasharray:none"/><path d="m -4.4979177,6.085403 c 0,0.2922507 -0.236916,0.5291666 -0.5291667,0.5291666 -0.2922506,0 -0.5291666,-0.236916 -0.5291666,-0.5291666 0,-0.2922507 0.2369159,-0.5291667 0.5291666,-0.5291667 0.2922507,0 0.5291667,0.236916 0.5291667,0.5291667 z" id="circle7513" style="opacity:0.98600003;fill:#a8c5f7;fill-opacity:1;stroke:none;stroke-width:0.529167;stroke-linecap:round;stroke-linejoin:round;stroke-miterlimit:4;stroke-dasharray:none" transform="scale(-1,1)"/><path d="m 8.9958338,2.6458278 c 0,0.2922506 -0.236916,0.5291666 -0.5291666,0.5291666 -0.2922507,0 -0.5291667,-0.2369159 -0.5291667,-0.5291666 0,-0.2922507 0.236916,-0.5291667 0.5291667,-0.5291667 0.2922507,0 0.5291666,0.236916 0.5291666,0.5291667 z" id="circle7509" style="opacity:0.98600003;fill:#a8c5f7;fill-opacity:1;stroke:none;stroke-width:0.529167;stroke-linecap:round;stroke-linejoin:round;stroke-miterlimit:4;stroke-dasharray:none"/><path d="M 17 37 C 15.892 37 15 37.892001 15 39 L 15 47 C 15 48.108003 15.892 49 17 49 L 19 49 C 17.892 49 17 48.108003 17 47 L 17 39 C 17 37.892001 17.892 37 19 37 L 17 37 z " id="path847" style="fill:#f8f8f8;fill-opacity:1;stroke:none;stroke-width:2.00000119;stroke-linecap:round;stroke-linejoin:round;stroke-miterlimit:4;stroke-dasharray:none" transform="scale(0.26458333)"/><path d="m 4.4979166,12.964583 c -0.2931583,0 -0.5291667,0.236009 -0.5291667,0.529167 v 2.116666 c 0,0.29316 0.2360084,0.529167 0.5291667,0.529167 h 0.5291667 c -0.2931584,0 -0.5291667,-0.236007 -0.5291667,-0.529167 V 13.49375 c 0,-0.293158 0.2360083,-0.529167 0.5291667,-0.529167 z" id="path850" style="fill:#f8f8f8;fill-opacity:1;stroke:none;stroke-width:0.529167;stroke-linecap:round;stroke-linejoin:round;stroke-miterlimit:4;stroke-dasharray:none"/><path d="m 32,2 c -7.127093,-9.45e-5 -13.050565,5.3525714 -13.90625,12.289062 -0.67835,-0.18444 -1.382456,-0.285156 -2.097656,-0.285156 -4.406438,0 -7.9941409,3.587742 -7.9941409,7.994141 C 8.0019531,26.404486 11.589656,30 15.996094,30 h 11.007812 v 2 H 6.0019531 C 3.8032507,32 2,33.803251 2,36.001953 v 4 c 0,1.19709 0.5451315,2.264844 1.3867188,3 C 2.544867,43.734766 2,44.799042 2,45.996094 v 6.001953 c 0,2.198702 1.8032507,4 4.0019531,4 h 8.0019529 v 3.005859 C 14.003906,60.648605 15.355301,62 17,62 h 30 c 1.644699,0 2.998047,-1.351395 2.998047,-2.996094 V 55.998047 H 58 c 2.198702,0 4,-1.801298 4,-4 V 45.996094 C 62,44.798815 61.454831,43.734766 60.613281,43.001953 61.455095,42.266797 62,41.199232 62,40.001953 v -4 C 62,33.803251 60.198702,32 58,32 H 36.998047 v -2 h 9.523437 c 3.671509,7.5e-5 7.032478,-2.140438 8.591797,-5.484375 C 56.672563,21.171688 56.148997,17.2209 53.777344,14.394531 51.643385,11.851363 48.356029,10.646902 45.121094,11.123047 43.128187,5.7927035 37.994857,2.0000945 32,2 Z m 12.011672,13.701172 c 0.01814,0.54928 0.475998,0.981045 1.02539,0.966797 0.552367,-0.01383 0.988809,-0.473032 0.97461,-1.025391 -0.02268,-0.88664 -0.137698,-1.750195 -0.31836,-2.58789 2.461607,-0.265701 4.930511,0.68939 6.554688,2.625 1.875061,2.234607 2.281634,5.342509 1.048828,7.986328 C 52.064031,26.309833 49.41562,28.000037 46.521484,28 h -9.523437 v -3.330078 c 0,-0.386646 0.285343,-0.671875 0.671875,-0.671875 H 42.1875 c 0.415408,1.158728 1.517785,2 2.8125,2 1.645039,0 2.996094,-1.351093 2.996094,-2.996094 0,-1.64504 -1.351055,-3.003906 -2.996094,-3.003906 -1.292372,0 -2.3934,0.842558 -2.810547,2 h -4.519531 c -1.460031,0 -2.671875,1.211843 -2.671875,2.671875 V 28 H 32.996094 C 32.991315,22.937236 33,17.866952 33,12.810547 c 1.155374,-0.417092 1.996094,-1.516337 1.996094,-2.808594 0,-1.6450015 -1.353046,-3.0039061 -2.998047,-3.0039061 -1.645002,0 -2.996094,1.3589046 -2.996094,3.0039061 0,1.293385 0.841175,2.392259 1.998047,2.808594 C 30.986792,17.86703 30.994141,22.93841 30.994141,28 h -1.992188 v -3.330078 c 0,-1.460032 -1.211843,-2.671875 -2.671875,-2.671875 h -4.519531 c -0.417184,-1.157442 -1.518138,-2 -2.810547,-2 -1.645002,0 -3.005859,1.358867 -3.005859,3.003906 0,1.645002 1.360857,2.996094 3.005859,2.996094 1.294753,0 2.397129,-0.841273 2.8125,-2 h 4.517578 c 0.386646,0 0.671875,0.28538 0.671875,0.671875 V 28 H 15.994141 C 12.668609,28 10,25.323616 10,21.998047 c 0,-3.325531 2.668609,-6.001953 5.994141,-6.001953 1.301102,0 2.558347,0.429454 3.58789,1.197265 0.444097,0.331438 1.07302,0.238636 1.402344,-0.207031 0.327413,-0.443069 0.23489,-1.06752 -0.207031,-1.396484 -0.238866,-0.178016 -0.488305,-0.336735 -0.744141,-0.486328 0.468775,-6.237317 5.640636,-11.1016574 11.964821,-11.1015629 6.524194,9.45e-5 11.841679,5.1785506 12.013648,11.6992189 z M 32,8.9980469 c 0.564133,0 0.996094,0.4397739 0.996094,1.0039061 0,0.564132 -0.431961,0.996094 -0.996094,0.996094 -0.564132,0 -1.003906,-0.431962 -1.003906,-0.996094 0,-0.5641322 0.439774,-1.0039061 1.003906,-1.0039061 z M 19.001953,21.998047 c 0.564133,0 0.996094,0.439773 0.996094,1.003906 0,0.564094 -0.431961,0.996094 -0.996094,0.996094 -0.564132,0 -1.005859,-0.432 -1.005859,-0.996094 0,-0.564133 0.441727,-1.003906 1.005859,-1.003906 z m 25.998047,0 c 0.564132,0 0.996094,0.439773 0.996094,1.003906 0,0.564094 -0.431962,0.996094 -0.996094,0.996094 -0.564132,0 -0.996094,-0.432 -0.996094,-0.996094 0,-0.564133 0.431962,-1.003906 0.996094,-1.003906 z M 29.003906,30 h 1.992188 v 2 h -1.992188 z m 3.992188,0 h 2.001953 v 2 H 32.996094 Z M 6.0019531,34.001953 H 58 c 1.125279,0 2,0.874684 2,2 v 4 c 0,1.125317 -0.874721,2.001953 -2,2.001953 h -8.001953 v -3.005859 c 0,-1.644734 -1.353348,-2.996094 -2.998047,-2.996094 H 17 c -1.644699,0 -2.996094,1.35136 -2.996094,2.996094 v 3.005859 H 6.0019531 c -1.1252787,0 -2,-0.876636 -2,-2.001953 v -4 c 0,-1.125316 0.8747213,-2 2,-2 z m 10.9980469,4 h 4.998047 v 9.994141 H 17 c -0.571313,0 -1.003906,-0.424818 -1.003906,-0.996094 v -3.943359 c 5.36e-4,-0.0189 5.36e-4,-0.03774 0,-0.05664 v -4.001953 c 0,-0.571276 0.432593,-0.996094 1.003906,-0.996095 z m 6.998047,0 H 47 c 0.571276,0 0.996094,0.42478 0.996094,0.996094 V 43 47 c 0,0.571276 -0.424818,0.996094 -0.996094,0.996094 H 23.998047 Z M 19,42 c -0.552302,-8e-6 -1.000009,0.447698 -1,1 1.1e-5,0.552287 0.447712,1.000008 1,1 0.552273,-1.1e-5 0.999989,-0.447728 1,-1 9e-6,-0.552287 -0.447712,-0.999989 -1,-1 z m 8.003906,0.0039 C 26.450849,42.0006 26.000198,42.446938 25.998047,43 c -0.0022,0.55612 0.449743,1.007183 1.005859,1.003906 H 45 C 45.552291,44.001752 45.998263,43.552291 45.996094,43 45.993951,42.450763 45.549237,42.006049 45,42.003906 Z m -13,2 V 47 c 0,0.768832 0.30236,1.467238 0.785156,2 -0.482115,0.534765 -0.785156,1.2335 -0.785156,2.001953 v 2.996094 H 6.0019531 c -1.1252787,0 -2,-0.874721 -2,-2 v -6.001953 c 0,-1.125317 0.8747213,-1.992188 2,-1.992191 2.6673176,-2e-6 5.3346349,-3e-6 8.0019529,-3e-6 z m 35.994141,0 H 58 c 1.125279,0 2,0.866871 2,1.992188 v 6.001953 c 0,1.125279 -0.874721,2 -2,2 h -8.001953 v -2.996094 c 0,-0.768491 -0.304653,-1.467188 -0.787109,-2.001953 0.482759,-0.5328 0.787109,-1.231168 0.787109,-2 z M 17,49.998047 h 4.998047 V 60 H 17 c -0.571313,0 -1.003906,-0.42478 -1.003906,-0.996094 2.37e-4,-2.669948 0,-5.332888 0,-8.001952 0,-0.571313 0.432593,-1.003906 1.003906,-1.003907 z m 6.998047,0 H 47 c 0.571276,0 0.996094,0.432593 0.996094,1.003906 v 4 4.001953 C 47.996094,59.57522 47.571276,60 47,60 H 23.998047 Z m 3.005859,4 c -0.556116,-0.0033 -1.008047,0.447786 -1.005859,1.003906 0.0022,0.553062 0.452802,0.999352 1.005859,0.996094 H 45 c 0.549237,-0.0021 0.993951,-0.446857 0.996094,-0.996094 C 45.998263,54.449662 45.552291,54.000201 45,53.998047 Z M 19,54 c -0.552288,-8e-6 -0.999989,0.447713 -1,1 -9e-6,0.552302 0.447698,1.000008 1,1 0.552301,-1.1e-5 1.000028,-0.447698 1,-1 -1.1e-5,-0.552272 -0.447727,-0.999989 -1,-1 z" id="path2884" style="color:#000000;font-style:normal;font-variant:normal;font-weight:normal;font-stretch:normal;font-size:medium;line-height:normal;font-family:sans-serif;font-variant-ligatures:normal;font-variant-position:normal;font-variant-caps:normal;font-variant-numeric:normal;font-variant-alternates:normal;font-feature-settings:normal;text-indent:0;text-align:start;text-decoration:none;text-decoration-line:none;text-decoration-style:solid;text-decoration-color:#000000;letter-spacing:normal;word-spacing:normal;text-transform:none;writing-mode:lr-tb;direction:ltr;text-orientation:mixed;dominant-baseline:auto;baseline-shift:baseline;text-anchor:start;white-space:normal;shape-padding:0;clip-rule:nonzero;display:inline;overflow:visible;visibility:visible;opacity:1;isolation:auto;mix-blend-mode:normal;color-interpolation:sRGB;color-interpolation-filters:linearRGB;solid-color:#000000;solid-opacity:1;vector-effect:none;fill:#66a0fe;fill-opacity:1;fill-rule:nonzero;stroke:none;stroke-width:3.77952766;stroke-linecap:round;stroke-linejoin:round;stroke-miterlimit:4;stroke-dasharray:none;stroke-dashoffset:0;stroke-opacity:1;color-rendering:auto;image-rendering:auto;shape-rendering:auto;text-rendering:auto;enable-background:accumulate" transform="scale(0.26458333)"/></g></svg>