<?xml version="1.0" ?><!DOCTYPE svg  PUBLIC '-//W3C//DTD SVG 1.1//EN'  'http://www.w3.org/Graphics/SVG/1.1/DTD/svg11.dtd'><svg enable-background="new 0 0 32 32" height="32px" version="1.1" viewBox="0 0 32 32" width="32px" xml:space="preserve" xmlns="http://www.w3.org/2000/svg" xmlns:xlink="http://www.w3.org/1999/xlink"><g id="site"><g id="live_stream_x2C__monitor_1_"><g id="XMLID_2033_"><g id="XMLID_2040_"><g id="XMLID_2043_"><g id="XMLID_2050_"><circle cx="7.5" cy="4.5" fill="#263238" id="XMLID_2051_" r="0.5"/></g><g id="XMLID_2048_"><circle cx="5.5" cy="4.5" fill="#263238" id="XMLID_2049_" r="0.5"/></g><g id="XMLID_2046_"><circle cx="3.5" cy="4.5" fill="#263238" id="XMLID_2047_" r="0.5"/></g><g id="XMLID_2044_"><path d="M30.5,7h-27C3.224,7,3,6.776,3,6.5S3.224,6,3.5,6h27C30.776,6,31,6.224,31,6.5        S30.776,7,30.5,7z" fill="#263238" id="XMLID_2045_"/></g></g><g id="XMLID_2041_"><path d="M30.5,22c-0.276,0-0.5-0.224-0.5-0.5v-18C30,3.225,29.776,3,29.5,3h-27       C2.224,3,2,3.225,2,3.5v16C2,19.776,1.776,20,1.5,20S1,19.776,1,19.5v-16C1,2.673,1.673,2,2.5,2h27C30.327,2,31,2.673,31,3.5       v18C31,21.776,30.776,22,30.5,22z" fill="#263238" id="XMLID_2042_"/></g></g><g id="XMLID_2038_"><path d="M21.5,31h-11c-0.276,0-0.5-0.224-0.5-0.5s0.224-0.5,0.5-0.5h1      c0.827,0,1.5-0.673,1.5-1.5v-1c0-0.276,0.224-0.5,0.5-0.5s0.5,0.224,0.5,0.5v1c0,0.563-0.187,1.082-0.501,1.5h5.002      C18.187,29.582,18,29.063,18,28.5v-3c0-0.276,0.224-0.5,0.5-0.5s0.5,0.224,0.5,0.5v3c0,0.827,0.673,1.5,1.5,1.5h1      c0.276,0,0.5,0.224,0.5,0.5S21.776,31,21.5,31z" fill="#263238" id="XMLID_2039_"/></g><g id="XMLID_2034_"><path d="M29.5,26h-27C1.673,26,1,25.327,1,24.5v-3C1,21.224,1.224,21,1.5,21h29      c0.276,0,0.5,0.224,0.5,0.5v3C31,25.327,30.327,26,29.5,26z M2,22v2.5C2,24.775,2.224,25,2.5,25h27c0.276,0,0.5-0.225,0.5-0.5      V22H2z" fill="#263238" id="XMLID_2035_"/></g></g></g><g id="XMLID_2029_"><path d="M28.5,15h-25C3.224,15,3,14.776,3,14.5v-6C3,8.224,3.224,8,3.5,8h25    C28.776,8,29,8.224,29,8.5v6C29,14.776,28.776,15,28.5,15z M4,14h24V9H4V14z" fill="#263238" id="XMLID_2030_"/></g><g id="XMLID_2027_"><path d="M28.5,17h-11c-0.276,0-0.5-0.224-0.5-0.5s0.224-0.5,0.5-0.5h11    c0.276,0,0.5,0.224,0.5,0.5S28.776,17,28.5,17z" fill="#263238" id="XMLID_2028_"/></g><g id="XMLID_2025_"><path d="M28.5,19h-11c-0.276,0-0.5-0.224-0.5-0.5s0.224-0.5,0.5-0.5h11    c0.276,0,0.5,0.224,0.5,0.5S28.776,19,28.5,19z" fill="#263238" id="XMLID_2026_"/></g><g id="XMLID_2023_"><path d="M14.5,17h-11C3.224,17,3,16.776,3,16.5S3.224,16,3.5,16h11c0.276,0,0.5,0.224,0.5,0.5    S14.776,17,14.5,17z" fill="#263238" id="XMLID_2024_"/></g><g id="XMLID_2021_"><path d="M14.5,19h-11C3.224,19,3,18.776,3,18.5S3.224,18,3.5,18h11c0.276,0,0.5,0.224,0.5,0.5    S14.776,19,14.5,19z" fill="#263238" id="XMLID_2022_"/></g></g></svg>